# xmcd
# 
# Track frame offsets:
#     183
#     12200
#     28738
#     45783
#     57208
#     69980
#     83985
#     101290
#     116108
#     134120
# 
# Disc length: 2035
# 
# Revision: 13
# Processed by: cddbd v1.5.2PL0 Copyright (c) Steve Scherf et al.
# Submitted via: fre:ac v1.0.17
# 
DISCID=7d07f10a
DTITLE=Travis Tritt - It's All About To Change
DYEAR=1991
DGENRE=Country
TTITLE0=The Whiskey Ain't Workin'
TTITLE1=Don't Give Your Heart To A Rambler
TTITLE2=Anymore
TTITLE3=Here's A Quarter (Call Someone Who Cares)
TTITLE4=Bible Belt
TTITLE5=It's All About To Change
TTITLE6=Nothing Short Of Dying
TTITLE7=If Hell Had A Jukebox
TTITLE8=Someone For Me
TTITLE9=Homesick
EXTD=YEAR: 1991
EXTT0=
EXTT1=
EXTT2=
EXTT3=
EXTT4=
EXTT5=
EXTT6=
EXTT7=
EXTT8=
EXTT9=
PLAYORDER=
